<svg width="13" height="14" viewBox="0 0 13 14" fill="none" xmlns="http://www.w3.org/2000/svg">
<path d="M0.375 13C0.375 13.3452 0.654822 13.625 1 13.625C1.34518 13.625 1.625 13.3452 1.625 13H0.375ZM12 5L12.3904 5.48804C12.5387 5.36943 12.625 5.18986 12.625 4.99999C12.625 4.81013 12.5387 4.63056 12.3904 4.51195L12 5ZM7.39043 0.511957C7.1209 0.296326 6.72759 0.340027 6.51196 0.609566C6.29633 0.879105 6.34003 1.27241 6.60957 1.48804L7.39043 0.511957ZM6.60957 8.51196C6.34003 8.72759 6.29633 9.1209 6.51196 9.39043C6.72759 9.65997 7.1209 9.70367 7.39043 9.48804L6.60957 8.51196ZM1.625 13V7H0.375V13H1.625ZM3 5.625H12V4.375H3V5.625ZM12.3904 4.51195L7.39043 0.511957L6.60957 1.48804L11.6096 5.48804L12.3904 4.51195ZM7.39043 9.48804L12.3904 5.48804L11.6096 4.51195L6.60957 8.51196L7.39043 9.48804ZM1.625 7C1.625 6.2406 2.24061 5.625 3 5.625V4.375C1.55025 4.375 0.375 5.55025 0.375 7H1.625Z" fill="black"/>
</svg>
